# xmcd
#
# Track frame offsets: 
#        150
#        19360
#        35668
#        55754
#        76253
#        95622
#        114359
#        132582
#        148755
#        165275
#        187332
#        211690
#        228051
#        249052
#        274768
#
# Disc length: 3872 seconds
#
# Revision: 5
# Processed by: cddbd v1.5.2PL0 Copyright (c) Steve Scherf et al.
# Submitted via: ExactAudioCopy v1.0b3
#
DISCID=c70f1e0f
DTITLE=2Pac - Pac's Life
DYEAR=2006
DGENRE=Hip-Hop
TTITLE0=Untouchable (Swizz Beatz Remix) (feat. Bone Thugs-N-Harmony)
TTITLE1=Pac's Life (feat. T.I. and Ashanti)
TTITLE2=Dumpin' (feat. Hussein Fatal, Papoose and Carl Thomas)
TTITLE3=Playa Cardz Right (Female) (feat. Keyshia Cole)
TTITLE4=Whatz Next (feat. A3 and Jay Rock)
TTITLE5=Sleep (feat. Young Buck and Chamillionaire)
TTITLE6=International (feat. Nipsey Hussle and Young Dre The Truth)
TTITLE7=Don't Sleep (feat. Lil Scrappy, Nutso, Yaki Kadafi and Stormy)
TTITLE8=Soon As I Get Home (feat. Yaki Kadafi)
TTITLE9=Playa Cardz Right (Male) (feat. Ludacris and Keon Bryce)
TTITLE10=Don't Stop (feat. Big Syke, Yaki Kadafi, Hussein Fatal, E.D.I
TTITLE10=, Young Noble and Stormy)
TTITLE11=Pac's Life (Remix) (feat. Snoop Dogg, T.I. and Chris Starr)
TTITLE12=Untouchable (feat. Yaki Kadafi, Hussein Fatal and Gravy)
TTITLE13=Dear Mama (Remix) (feat. Anthony Hamilton) (Bonus Track)
TTITLE14=Scared Straight (Bonus Track)
EXTD=
EXTT0=
EXTT1=
EXTT2=
EXTT3=
EXTT4=
EXTT5=
EXTT6=
EXTT7=
EXTT8=
EXTT9=
EXTT10=
EXTT11=
EXTT12=
EXTT13=
EXTT14=
PLAYORDER=
